<?xml version="1.0" encoding="utf-8"?>
<svg xmlns="http://www.w3.org/2000/svg" viewBox="543.4421 122.6129 244.041 316.191" width="244.041px" height="316.191px"><g transform="matrix(1, 0, 0, 1, 9.39306354522705, -1.44508695602417)" id="object-0"><path style="fill: rgb(205, 41, 0);" d="M 778.09 240.911 C 778.09 305.447 656.069 440.249 656.069 440.249 C 656.069 440.249 534.049 305.447 534.049 240.911 C 534.049 176.375 588.68 124.058 656.069 124.058 C 723.459 124.058 778.09 176.375 778.09 240.911 Z"/><path style="fill: rgb(255, 234, 3);" d="M 656.069 345.918 C 600.679 345.918 555.616 300.53 555.616 244.741 C 555.616 188.953 600.679 143.564 656.069 143.564 C 711.459 143.564 756.525 188.953 756.525 244.741 C 756.525 300.53 711.459 345.918 656.069 345.918 Z"/><path d="M 746.694 232.704 C 746.694 237.828 741.933 241.842 736.537 241.842 L 726.379 241.842 L 726.601 287.443 C 726.601 288.211 726.537 288.98 726.442 289.748 L 726.442 294.36 C 726.442 300.651 720.761 305.746 713.746 305.746 L 708.666 305.746 C 708.317 305.746 707.968 305.746 707.619 305.717 C 707.175 305.746 706.731 305.746 706.286 305.746 L 695.969 305.717 L 688.352 305.717 C 681.337 305.717 675.655 300.622 675.655 294.332 L 675.655 287.5 L 675.655 269.282 C 675.655 264.244 671.116 260.173 665.498 260.173 L 645.182 260.173 C 639.564 260.173 635.025 264.244 635.025 269.282 L 635.025 287.5 L 635.025 294.332 C 635.025 300.622 629.343 305.717 622.328 305.717 L 614.71 305.717 L 604.584 305.717 C 604.108 305.717 603.632 305.689 603.156 305.661 C 602.775 305.689 602.394 305.717 602.013 305.717 L 596.934 305.717 C 589.919 305.717 584.237 300.622 584.237 294.332 L 584.237 262.45 C 584.237 262.195 584.237 261.91 584.269 261.653 L 584.269 241.813 L 574.112 241.813 C 568.398 241.813 563.954 237.828 563.954 232.676 C 563.954 230.114 564.906 227.837 567.128 225.844 L 648.483 162.253 C 650.706 160.26 653.245 159.976 655.467 159.976 C 657.689 159.976 660.228 160.545 662.133 161.968 L 743.202 225.873 C 745.741 227.865 747.011 230.142 746.694 232.704 Z" style="fill: rgb(255, 255, 255);"/></g></svg>