<?xml version="1.0" encoding="utf-8"?>
<svg xmlns="http://www.w3.org/2000/svg" viewBox="0 0 500 500" xmlns:bx="https://boxy-svg.com" width="500px" height="500px"><defs><bx:export><bx:file format="svg" path="bases.svg"/></bx:export></defs><g><path style="fill: rgb(205, 41, 0);" d="M 379.969 195.077 C 379.969 257.842 253.974 388.947 253.974 388.947 C 253.974 388.947 127.98 257.842 127.98 195.077 C 127.98 132.308 184.39 81.427 253.974 81.427 C 323.559 81.427 379.969 132.309 379.969 195.077 Z"/></g><path style="fill: rgb(255, 255, 255);" d="M 253.613 294.617 C 199.019 294.617 154.604 251.499 154.604 198.498 C 154.604 145.498 199.019 102.379 253.613 102.379 C 308.207 102.379 352.623 145.498 352.623 198.498 C 352.623 251.499 308.207 294.617 253.613 294.617 Z"/><path fill="#000000" d="M 298.74 186.926 C 298.74 189.917 296.406 192.259 293.762 192.259 L 288.784 192.259 L 288.893 218.874 C 288.893 219.322 288.862 219.771 288.815 220.219 L 288.815 222.911 C 288.815 226.582 286.031 229.556 282.593 229.556 L 280.104 229.556 C 279.933 229.556 279.762 229.556 279.59 229.539 C 279.373 229.556 279.155 229.556 278.937 229.556 L 273.881 229.539 L 270.148 229.539 C 266.71 229.539 263.926 226.566 263.926 222.894 L 263.926 218.907 L 263.926 208.274 C 263.926 205.334 261.701 202.958 258.948 202.958 L 248.992 202.958 C 246.238 202.958 244.014 205.334 244.014 208.274 L 244.014 218.907 L 244.014 222.894 C 244.014 226.566 241.229 229.539 237.791 229.539 L 234.058 229.539 L 229.096 229.539 C 228.862 229.539 228.629 229.523 228.396 229.506 C 228.209 229.523 228.022 229.539 227.836 229.539 L 225.347 229.539 C 221.909 229.539 219.124 226.566 219.124 222.894 L 219.124 204.287 C 219.124 204.138 219.124 203.971 219.14 203.822 L 219.14 192.242 L 214.162 192.242 C 211.362 192.242 209.184 189.917 209.184 186.91 C 209.184 185.414 209.651 184.085 210.74 182.922 L 250.61 145.808 C 251.699 144.645 252.943 144.479 254.032 144.479 C 255.121 144.479 256.365 144.811 257.299 145.642 L 297.029 182.939 C 298.273 184.102 298.895 185.431 298.74 186.926 Z" style=""/></svg>