<?xml version="1.0" encoding="utf-8"?>
<svg xmlns="http://www.w3.org/2000/svg" viewBox="0 0 500 500" xmlns:bx="https://boxy-svg.com" width="500px" height="500px"><defs><bx:export><bx:file format="svg" path="partner_location_y.svg"/></bx:export></defs><g transform="matrix(1, 0, 0, 1, -20.231203, 41.184975)"><path style="fill: rgb(205, 0, 0);" d="M 347.454 192.328 C 347.454 239.61 259.755 306.578 259.755 306.578 C 259.755 306.578 170.61 239.61 170.61 192.328 C 170.61 145.046 210.197 106.717 259.032 106.717 C 307.865 106.717 347.454 145.047 347.454 192.328 Z"/><path style="fill: rgb(246, 173, 7);" d="M 259.032 256.788 C 221.605 256.788 191.154 227.306 191.154 191.069 C 191.154 154.831 221.605 125.35 259.032 125.35 C 296.459 125.35 326.909 154.831 326.909 191.069 C 326.909 227.306 296.459 256.788 259.032 256.788 Z"/><path d="M 223.613 166.836 C 223.613 160.708 229.87 156.879 234.876 159.943 C 237.199 161.364 238.63 163.992 238.63 166.836 C 238.63 172.963 232.373 176.793 227.368 173.73 C 225.045 172.308 223.613 169.68 223.613 166.836 Z M 222.541 189.252 C 221.2 190.844 220.396 192.961 220.396 195.264 C 220.396 197.567 221.2 199.685 222.541 201.277 L 222.541 189.238 L 222.541 189.252 Z M 241.902 182.244 C 237.92 185.982 235.412 191.455 235.412 197.538 C 235.412 202.414 237.021 206.891 239.703 210.402 L 239.703 213.458 C 239.703 215.974 237.786 218.007 235.412 218.007 L 226.831 218.007 C 224.458 218.007 222.541 215.974 222.541 213.458 L 222.541 209.649 C 217.473 207.09 213.96 201.618 213.96 195.264 C 213.96 186.466 220.677 179.345 228.977 179.345 L 233.267 179.345 C 236.485 179.345 239.461 180.411 241.902 182.23 L 241.902 182.244 Z M 274.026 213.458 L 274.026 210.402 C 276.708 206.891 278.317 202.414 278.317 197.538 C 278.317 191.455 275.81 185.982 271.828 182.23 C 274.268 180.411 277.244 179.345 280.462 179.345 L 284.753 179.345 C 293.052 179.345 299.769 186.466 299.769 195.264 C 299.769 201.618 296.256 207.09 291.188 209.649 L 291.188 213.458 C 291.188 215.974 289.271 218.007 286.898 218.007 L 278.317 218.007 C 275.943 218.007 274.026 215.974 274.026 213.458 Z M 275.099 166.836 C 275.099 160.708 281.356 156.879 286.361 159.943 C 288.685 161.364 290.116 163.992 290.116 166.836 C 290.116 172.963 283.859 176.793 278.853 173.73 C 276.53 172.308 275.099 169.68 275.099 166.836 Z M 291.188 189.252 L 291.188 201.291 C 292.529 199.685 293.334 197.581 293.334 195.278 C 293.334 192.976 292.529 190.858 291.188 189.266 L 291.188 189.252 Z M 256.864 158.876 C 263.47 158.876 267.599 166.457 264.296 172.521 C 262.763 175.336 259.93 177.07 256.864 177.07 C 250.259 177.07 246.13 169.489 249.433 163.425 C 250.966 160.61 253.799 158.876 256.864 158.876 Z M 246.139 197.538 C 246.139 199.841 246.943 201.945 248.284 203.551 L 248.284 191.512 C 246.943 193.118 246.139 195.221 246.139 197.524 L 246.139 197.538 Z M 265.445 191.526 L 265.445 203.565 C 266.786 201.959 267.591 199.855 267.591 197.552 C 267.591 195.25 266.786 193.132 265.445 191.54 L 265.445 191.526 Z M 274.026 197.538 C 274.026 203.892 270.513 209.364 265.445 211.923 L 265.445 218.007 C 265.445 220.522 263.528 222.555 261.155 222.555 L 252.574 222.555 C 250.201 222.555 248.284 220.522 248.284 218.007 L 248.284 211.923 C 243.216 209.364 239.703 203.892 239.703 197.538 C 239.703 188.74 246.42 181.619 254.72 181.619 L 259.01 181.619 C 267.309 181.619 274.026 188.74 274.026 197.538 Z" style="fill: rgb(255, 255, 255);"/></g></svg>