<?xml version="1.0" encoding="utf-8"?>
<svg xmlns="http://www.w3.org/2000/svg" viewBox="529.3881 232.9051 71.1249 71.8399" width="71.1249px" height="71.8399px"><g id="object-0" transform="matrix(1, 0, 0, 1, 0, -3.552713678800501e-15)"><g id="SVGRepo_iconCarrier" transform="matrix(4.064281, 0, 0, 3.341392, 516.179199, 228.728317)" style=""><path fill-rule="evenodd" clip-rule="evenodd" d="M 3.25 10.143 C 3.25 5.244 7.155 1.25 12 1.25 C 16.845 1.25 20.75 5.244 20.75 10.143 C 20.75 12.508 20.076 15.048 18.884 17.242 C 17.694 19.433 15.956 21.337 13.781 22.354 C 12.651 22.882 11.349 22.882 10.22 22.354 C 8.044 21.337 6.306 19.433 5.116 17.242 C 3.924 15.048 3.25 12.508 3.25 10.143 Z M 12 2.75 C 8.008 2.75 4.75 6.047 4.75 10.143 C 4.75 12.24 5.353 14.535 6.434 16.526 C 7.516 18.519 9.046 20.15 10.855 20.995 C 11.582 21.335 12.418 21.335 13.145 20.995 C 14.954 20.15 16.484 18.519 17.566 16.526 C 18.647 14.535 19.25 12.24 19.25 10.143 C 19.25 6.047 15.992 2.75 12 2.75 Z" style="paint-order: stroke; fill-rule: nonzero;" fill="#c20000"/></g><ellipse style="stroke: rgb(0, 0, 0); fill: rgb(255, 255, 255);" cx="565.029" cy="263.288" rx="29.625" ry="24.928"/><path fill="#d13400" d="M 549.499 249.21 C 549.499 246.35 552.489 244.562 554.882 245.992 C 555.992 246.656 556.676 247.882 556.676 249.21 C 556.676 252.07 553.686 253.858 551.293 252.428 C 550.183 251.765 549.499 250.538 549.499 249.21 Z M 548.986 259.674 C 548.345 260.417 547.961 261.406 547.961 262.48 C 547.961 263.556 548.345 264.544 548.986 265.287 L 548.986 259.667 L 548.986 259.674 Z M 558.24 256.403 C 556.336 258.148 555.138 260.702 555.138 263.542 C 555.138 265.818 555.906 267.908 557.188 269.547 L 557.188 270.973 C 557.188 272.148 556.273 273.097 555.138 273.097 L 551.037 273.097 C 549.902 273.097 548.986 272.148 548.986 270.973 L 548.986 269.195 C 546.564 268.001 544.885 265.447 544.885 262.48 C 544.885 258.373 548.096 255.048 552.062 255.048 L 554.113 255.048 C 555.65 255.048 557.073 255.546 558.24 256.396 L 558.24 256.403 Z M 573.593 270.973 L 573.593 269.547 C 574.875 267.908 575.643 265.818 575.643 263.542 C 575.643 260.702 574.445 258.148 572.542 256.396 C 573.709 255.546 575.131 255.048 576.669 255.048 L 578.72 255.048 C 582.686 255.048 585.897 258.373 585.897 262.48 C 585.897 265.447 584.217 268.001 581.795 269.195 L 581.795 270.973 C 581.795 272.148 580.879 273.097 579.744 273.097 L 575.643 273.097 C 574.509 273.097 573.593 272.148 573.593 270.973 Z M 574.106 249.21 C 574.106 246.35 577.096 244.562 579.488 245.992 C 580.598 246.656 581.283 247.882 581.283 249.21 C 581.283 252.07 578.292 253.858 575.9 252.428 C 574.79 251.765 574.106 250.538 574.106 249.21 Z M 581.795 259.674 L 581.795 265.294 C 582.436 264.544 582.821 263.562 582.821 262.487 C 582.821 261.412 582.436 260.424 581.795 259.68 L 581.795 259.674 Z M 565.391 245.494 C 568.547 245.494 570.521 249.033 568.943 251.864 C 568.21 253.178 566.856 253.987 565.391 253.987 C 562.233 253.987 560.26 250.448 561.839 247.618 C 562.572 246.303 563.925 245.494 565.391 245.494 Z M 560.264 263.542 C 560.264 264.617 560.649 265.599 561.29 266.349 L 561.29 260.729 C 560.649 261.479 560.264 262.461 560.264 263.535 L 560.264 263.542 Z M 569.492 260.735 L 569.492 266.356 C 570.133 265.605 570.517 264.624 570.517 263.549 C 570.517 262.474 570.133 261.486 569.492 260.742 L 569.492 260.735 Z M 573.593 263.542 C 573.593 266.508 571.914 269.062 569.492 270.257 L 569.492 273.097 C 569.492 274.271 568.576 275.22 567.441 275.22 L 563.34 275.22 C 562.206 275.22 561.29 274.271 561.29 273.097 L 561.29 270.257 C 558.868 269.062 557.188 266.508 557.188 263.542 C 557.188 259.435 560.399 256.111 564.365 256.111 L 566.416 256.111 C 570.383 256.111 573.593 259.435 573.593 263.542 Z" style=""/></g></svg>